<?xml version="1.0" encoding="utf-8"?>
<svg xmlns="http://www.w3.org/2000/svg" viewBox="0 0 48 48" width="144" height="144">
  <path
    d="M23.976562 3.9785156 A 1.50015 1.50015 0 0 0 23.71875 4.0078125C12.820549 4.1595232 4 13.066427 4 24C4 34.937518 12.826835 43.8487 23.730469 43.994141 A 1.50015 1.50015 0 0 0 24.279297 43.992188C35.1784 43.841517 44 34.934228 44 24C44 13.064446 35.176319 4.1544228 24.275391 4.0058594 A 1.50015 1.50015 0 0 0 23.976562 3.9785156 z M 22.5 7.3535156L22.5 16L17.101562 16C17.527711 14.400298 17.988029 12.828718 18.617188 11.603516C19.769969 9.3586233 21.133812 7.9567089 22.5 7.3535156 z M 25.5 7.3535156C26.866188 7.9567089 28.230031 9.3586233 29.382812 11.603516C30.011971 12.828718 30.472288 14.400298 30.898438 16L25.5 16L25.5 7.3535156 z M 16.964844 8.53125C16.603209 9.0674164 16.257798 9.6277003 15.947266 10.232422C15.088701 11.904364 14.441776 13.885958 13.943359 16L8.9960938 16C10.749846 12.710031 13.55501 10.080426 16.964844 8.53125 z M 31.033203 8.53125C34.443762 10.080326 37.249879 12.709514 39.003906 16L34.056641 16C33.558224 13.885958 32.911299 11.904364 32.052734 10.232422C31.741998 9.6273023 31.39511 9.0677031 31.033203 8.53125 z M 7.7480469 19L13.515625 19C13.286667 20.633428 13 22.231889 13 24C13 25.768111 13.286667 27.366572 13.515625 29L7.7480469 29C7.2643289 27.419675 7 25.741249 7 24C7 22.258751 7.2643289 20.580325 7.7480469 19 z M 16.521484 19L22.5 19L22.5 29L16.521484 29C16.271389 27.388123 16 25.779503 16 24C16 22.220497 16.271389 20.611877 16.521484 19 z M 25.5 19L31.478516 19C31.728611 20.611877 32 22.220497 32 24C32 25.779503 31.728611 27.388123 31.478516 29L25.5 29L25.5 19 z M 34.484375 19L40.251953 19C40.735671 20.580325 41 22.258751 41 24C41 25.741249 40.735671 27.419675 40.251953 29L34.484375 29C34.713333 27.366572 35 25.768111 35 24C35 22.231889 34.713333 20.633428 34.484375 19 z M 8.9960938 32L13.943359 32C14.441776 34.114042 15.088701 36.095636 15.947266 37.767578C16.258002 38.372698 16.60489 38.932297 16.966797 39.46875C13.556238 37.919674 10.750121 35.290486 8.9960938 32 z M 17.101562 32L22.5 32L22.5 40.646484C21.133812 40.043291 19.769969 38.641376 18.617188 36.396484C17.988029 35.171282 17.527711 33.599702 17.101562 32 z M 25.5 32L30.898438 32C30.472289 33.599702 30.011971 35.171282 29.382812 36.396484C28.230031 38.641376 26.866188 40.043291 25.5 40.646484L25.5 32 z M 34.056641 32L39.003906 32C37.250154 35.289969 34.44499 37.919574 31.035156 39.46875C31.396791 38.932584 31.742202 38.3723 32.052734 37.767578C32.911299 36.095636 33.558224 34.114042 34.056641 32 z" />
</svg>