<?xml version="1.0" encoding="utf-8"?>
<svg xmlns="http://www.w3.org/2000/svg" viewBox="0 0 48 48" width="144" height="144">
  <path
    d="M37.46875 5.984375 A 1.50015 1.50015 0 0 0 36.339844 6.5507812L9.3398438 39.550781 A 1.50015 1.50015 0 1 0 11.660156 41.449219L38.660156 8.4492188 A 1.50015 1.50015 0 0 0 37.46875 5.984375 z M 13.5 7C9.9294345 7 7 9.9294345 7 13.5L7 17.5C7 21.070565 9.9294345 24 13.5 24C17.070565 24 20 21.070565 20 17.5L20 13.5C20 9.9294345 17.070565 7 13.5 7 z M 13.5 10C15.443435 10 17 11.556565 17 13.5L17 17.5C17 19.443435 15.443435 21 13.5 21C11.556565 21 10 19.443435 10 17.5L10 13.5C10 11.556565 11.556565 10 13.5 10 z M 34.5 24C30.929435 24 28 26.929435 28 30.5L28 34.5C28 38.070565 30.929435 41 34.5 41C38.070565 41 41 38.070565 41 34.5L41 30.5C41 26.929435 38.070565 24 34.5 24 z M 34.5 27C36.443435 27 38 28.556565 38 30.5L38 34.5C38 36.443435 36.443435 38 34.5 38C32.556565 38 31 36.443435 31 34.5L31 30.5C31 28.556565 32.556565 27 34.5 27 z" />
</svg>