<?xml version="1.0" encoding="utf-8"?>
<svg xmlns="http://www.w3.org/2000/svg" viewBox="0 0 48 48" width="144" height="144">
  <path
    d="M24 4C12.972066 4 4 12.972074 4 24C4 35.027926 12.972066 44 24 44C35.027934 44 44 35.027926 44 24C44 12.972074 35.027934 4 24 4 z M 24 7C24.678193 7 25.342824 7.0501778 26 7.1269531L26 8C26 8.552 26.448 9 27 9L28 9C28.552 9 29 8.552 29 8L29 7.7480469C32.162155 8.7159437 34.922665 10.580821 37 13.044922L37 18.394531C37 18.789531 37.116937 19.174906 37.335938 19.503906L38.744141 21.615234C38.911141 21.865234 39 22.161891 39 22.462891L39 22.474609C39 23.317609 39.682391 24 40.525391 24L41 24C41 32.717496 34.473797 39.864881 26.03125 40.867188L31.976562 36.033203C32.323563 35.751203 32.630625 35.424547 32.890625 35.060547L35.632812 31.222656C35.870812 30.889656 35.988797 30.485172 35.966797 30.076172L35.933594 29.449219C35.911594 29.034219 35.74775 28.640031 35.46875 28.332031L34.537109 27.302734C34.194109 26.923734 33.707313 26.707031 33.195312 26.707031L32.765625 26.707031C32.275625 26.707031 31.805844 26.507297 31.464844 26.154297L29.630859 24.259766C29.289859 23.907766 28.820078 23.708031 28.330078 23.707031L26.748047 23.707031C26.268047 23.707031 25.809703 23.897328 25.470703 24.236328L24.529297 25.177734C24.190297 25.516734 24 25.975078 24 26.455078L24 26.589844C24 27.274844 23.613 27.901031 23 28.207031C22.387 28.513031 22 29.139219 22 29.824219L22 30.953125C22 31.707125 22.467828 32.381484 23.173828 32.646484L24.119141 33.001953C25.125141 33.378953 25.581563 34.542906 25.101562 35.503906L22.394531 40.917969C13.745477 40.110878 7 32.864208 7 24C7 18.376948 9.7258601 13.416721 13.917969 10.324219L14 11.212891C14 11.528891 13.873391 11.833641 13.650391 12.056641L12.632812 13.074219C12.227813 13.479219 12 14.029562 12 14.601562L12 16.324219C12 16.577219 12.037375 16.828312 12.109375 17.070312L13.261719 20.914062C13.414719 21.424063 13.749125 21.860625 14.203125 22.140625L19.712891 25.529297C19.900891 25.645297 20.116891 25.707031 20.337891 25.707031L20.806641 25.707031C21.465641 25.707031 22 25.172672 22 24.513672C22 24.025672 21.703 23.58725 21.25 23.40625L17.748047 22.007812C17.295047 21.826812 16.998047 21.387391 16.998047 20.900391L16.998047 19.900391C16.998047 19.241391 17.532406 18.707031 18.191406 18.707031L21.261719 18.707031C21.713719 18.707031 22.126125 18.452828 22.328125 18.048828L23.777344 15.148438C23.918344 14.865438 24.16775 14.650781 24.46875 14.550781L26.183594 13.978516C26.671594 13.815516 27 13.360656 27 12.847656L27 12.333984C27 11.940984 26.806422 11.574562 26.482422 11.351562L20.626953 7.3339844C21.716942 7.11557 22.844586 7 24 7 z M 17.025391 8.5019531L22.460938 12.230469C21.885938 12.626469 21.416703 13.164641 21.095703 13.806641L20.146484 15.707031L18.193359 15.707031C17.026359 15.707031 15.968031 16.185031 15.207031 16.957031L15 16.267578L15 14.949219L15.771484 14.177734C16.563484 13.384734 17 12.332891 17 11.212891L17 11.076172L16.986328 10.939453L16.775391 8.6230469C16.859295 8.5836571 16.940739 8.5400059 17.025391 8.5019531 z M 23 20C22.448 20 22 20.448 22 21C22 21.552 22.448 22 23 22L25 22C25.552 22 26 21.552 26 21C26 20.448 25.552 20 25 20L23 20 z M 27.242188 26.707031L27.826172 26.707031L29.310547 28.240234C30.188547 29.148234 31.406969 29.678078 32.667969 29.705078L32.869141 29.927734L30.449219 33.314453C30.345219 33.459453 30.222984 33.590125 30.083984 33.703125L28.265625 35.181641C28.342625 34.426641 28.240984 33.655547 27.958984 32.935547C27.479984 31.716547 26.521453 30.743094 25.314453 30.246094C26.281453 29.425094 26.886375 28.253891 26.984375 26.962891L27.242188 26.707031 z"/>
</svg>