<svg id="visual" viewBox="0 0 1440 540" width="1440" height="540" xmlns="http://www.w3.org/2000/svg"
    xmlns:xlink="http://www.w3.org/1999/xlink" version="1.1">
    <path
        d="M0 333L30 337.7C60 342.3 120 351.7 180 362C240 372.3 300 383.7 360 388.8C420 394 480 393 540 389C600 385 660 378 720 368.7C780 359.3 840 347.7 900 342.7C960 337.7 1020 339.3 1080 346.7C1140 354 1200 367 1260 376.5C1320 386 1380 392 1410 395L1440 398L1440 541L1410 541C1380 541 1320 541 1260 541C1200 541 1140 541 1080 541C1020 541 960 541 900 541C840 541 780 541 720 541C660 541 600 541 540 541C480 541 420 541 360 541C300 541 240 541 180 541C120 541 60 541 30 541L0 541Z"
        fill="#392768"></path>
    <path
        d="M0 387L30 392.7C60 398.3 120 409.7 180 414.7C240 419.7 300 418.3 360 410.2C420 402 480 387 540 386C600 385 660 398 720 404.8C780 411.7 840 412.3 900 407.3C960 402.3 1020 391.7 1080 386.8C1140 382 1200 383 1260 378.7C1320 374.3 1380 364.7 1410 359.8L1440 355L1440 541L1410 541C1380 541 1320 541 1260 541C1200 541 1140 541 1080 541C1020 541 960 541 900 541C840 541 780 541 720 541C660 541 600 541 540 541C480 541 420 541 360 541C300 541 240 541 180 541C120 541 60 541 30 541L0 541Z"
        fill="#6a578c"></path>
    <path
        d="M0 395L30 402.3C60 409.7 120 424.3 180 424C240 423.7 300 408.3 360 406.5C420 404.7 480 416.3 540 425.2C600 434 660 440 720 444.3C780 448.7 840 451.3 900 444.3C960 437.3 1020 420.7 1080 417.5C1140 414.3 1200 424.7 1260 424C1320 423.3 1380 411.7 1410 405.8L1440 400L1440 541L1410 541C1380 541 1320 541 1260 541C1200 541 1140 541 1080 541C1020 541 960 541 900 541C840 541 780 541 720 541C660 541 600 541 540 541C480 541 420 541 360 541C300 541 240 541 180 541C120 541 60 541 30 541L0 541Z"
        fill="#9a8cb1"></path>
    <path
        d="M0 483L30 477.8C60 472.7 120 462.3 180 459.8C240 457.3 300 462.7 360 467.2C420 471.7 480 475.3 540 478C600 480.7 660 482.3 720 474.8C780 467.3 840 450.7 900 446.5C960 442.3 1020 450.7 1080 459.2C1140 467.7 1200 476.3 1260 479.8C1320 483.3 1380 481.7 1410 480.8L1440 480L1440 541L1410 541C1380 541 1320 541 1260 541C1200 541 1140 541 1080 541C1020 541 960 541 900 541C840 541 780 541 720 541C660 541 600 541 540 541C480 541 420 541 360 541C300 541 240 541 180 541C120 541 60 541 30 541L0 541Z"
        fill="#ccc4d8"></path>
    <path
        d="M0 474L30 477.8C60 481.7 120 489.3 180 492.3C240 495.3 300 493.7 360 490C420 486.3 480 480.7 540 480C600 479.3 660 483.7 720 488.7C780 493.7 840 499.3 900 498.3C960 497.3 1020 489.7 1080 487.8C1140 486 1200 490 1260 494.7C1320 499.3 1380 504.7 1410 507.3L1440 510L1440 541L1410 541C1380 541 1320 541 1260 541C1200 541 1140 541 1080 541C1020 541 960 541 900 541C840 541 780 541 720 541C660 541 600 541 540 541C480 541 420 541 360 541C300 541 240 541 180 541C120 541 60 541 30 541L0 541Z"
        fill="#ffffff"></path>
</svg>